<?xml version="1.0" encoding="utf-8"?>
<!-- Generator: Adobe Illustrator 16.0.0, SVG Export Plug-In . SVG Version: 6.00 Build 0)  -->
<!DOCTYPE svg PUBLIC "-//W3C//DTD SVG 1.1//EN" "http://www.w3.org/Graphics/SVG/1.1/DTD/svg11.dtd">
<svg version="1.1" id="Livello_1" xmlns="http://www.w3.org/2000/svg" xmlns:xlink="http://www.w3.org/1999/xlink" x="0px" y="0px"
	 width="27.75px" height="38.25px" viewBox="36.25 31.25 27.75 38.25" enable-background="new 36.25 31.25 27.75 38.25"
	 xml:space="preserve">
<g opacity="0.9">
	<g opacity="0.5">
		<path d="M51,33.399c-6.584,0-11.922,5.338-11.922,11.923c0,0.141,0.004,0.284,0.01,0.43c0.046,1.252,0.282,2.455,0.683,3.581
			C42.314,57.692,51,68.6,51,68.6s8.684-10.905,11.229-19.267c0.402-1.126,0.637-2.329,0.684-3.581
			c0.006-0.146,0.01-0.289,0.01-0.43C62.924,38.737,57.586,33.399,51,33.399z M51,51.161c-3.225,0-5.839-2.614-5.839-5.839
			s2.614-5.84,5.839-5.84c3.225,0,5.838,2.615,5.838,5.84S54.225,51.161,51,51.161z"/>
	</g>
	<g>
		<path fill="#FFFFFF" d="M50,32.399c-6.585,0-11.923,5.338-11.923,11.923c0,0.141,0.004,0.284,0.01,0.43
			c0.046,1.252,0.282,2.455,0.683,3.581C41.314,56.692,50,67.6,50,67.6s8.683-10.905,11.228-19.267
			c0.402-1.126,0.637-2.329,0.684-3.581c0.006-0.146,0.01-0.289,0.01-0.43C61.924,37.737,56.586,32.399,50,32.399z M50,50.161
			c-3.226,0-5.84-2.614-5.84-5.839s2.614-5.84,5.84-5.84c3.224,0,5.837,2.615,5.837,5.84S53.225,50.161,50,50.161z"/>
	</g>
</g>
</svg>
